<mxfile host="app.diagrams.net" agent="Mozilla/5.0 (Windows NT 10.0; Win64; x64) AppleWebKit/537.36 (KHTML, like Gecko) Chrome/140.0.0.0 Safari/537.36" version="28.2.3">
  <diagram name="Trang-1" id="zFBKVDY-44RMLgJifmQi">
    <mxGraphModel dx="1572" dy="918" grid="1" gridSize="10" guides="1" tooltips="1" connect="1" arrows="1" fold="1" page="1" pageScale="1" pageWidth="827" pageHeight="1169" math="0" shadow="0">
      <root>
        <mxCell id="0" />
        <mxCell id="1" parent="0" />
        <mxCell id="Tv2dKZQADAr7p2nxNJKj-15" value="" style="edgeStyle=orthogonalEdgeStyle;rounded=0;orthogonalLoop=1;jettySize=auto;html=1;" edge="1" parent="1" source="whWEmUFnOALLh0_K32BY-1" target="Tv2dKZQADAr7p2nxNJKj-4">
          <mxGeometry relative="1" as="geometry" />
        </mxCell>
        <mxCell id="whWEmUFnOALLh0_K32BY-1" value="Bắt đầu" style="ellipse;whiteSpace=wrap;html=1;" parent="1" vertex="1">
          <mxGeometry x="70" y="10" width="180" height="130" as="geometry" />
        </mxCell>
        <mxCell id="Tv2dKZQADAr7p2nxNJKj-3" style="edgeStyle=orthogonalEdgeStyle;rounded=0;orthogonalLoop=1;jettySize=auto;html=1;" edge="1" parent="1">
          <mxGeometry relative="1" as="geometry">
            <mxPoint x="159" y="320" as="targetPoint" />
            <mxPoint x="159" y="280" as="sourcePoint" />
          </mxGeometry>
        </mxCell>
        <mxCell id="Tv2dKZQADAr7p2nxNJKj-21" style="edgeStyle=orthogonalEdgeStyle;rounded=0;orthogonalLoop=1;jettySize=auto;html=1;exitX=1;exitY=0.5;exitDx=0;exitDy=0;" edge="1" parent="1" source="Tv2dKZQADAr7p2nxNJKj-4">
          <mxGeometry relative="1" as="geometry">
            <mxPoint x="280" y="240" as="targetPoint" />
          </mxGeometry>
        </mxCell>
        <mxCell id="Tv2dKZQADAr7p2nxNJKj-4" value="Nhập điểm sinh viên" style="shape=parallelogram;perimeter=parallelogramPerimeter;whiteSpace=wrap;html=1;fixedSize=1;" vertex="1" parent="1">
          <mxGeometry x="80" y="200" width="160" height="80" as="geometry" />
        </mxCell>
        <mxCell id="Tv2dKZQADAr7p2nxNJKj-7" value="" style="edgeStyle=orthogonalEdgeStyle;rounded=0;orthogonalLoop=1;jettySize=auto;html=1;" edge="1" parent="1" source="Tv2dKZQADAr7p2nxNJKj-5" target="Tv2dKZQADAr7p2nxNJKj-6">
          <mxGeometry relative="1" as="geometry" />
        </mxCell>
        <mxCell id="Tv2dKZQADAr7p2nxNJKj-5" value="Xử lí điểm" style="rounded=0;whiteSpace=wrap;html=1;" vertex="1" parent="1">
          <mxGeometry x="90" y="320" width="140" height="80" as="geometry" />
        </mxCell>
        <mxCell id="Tv2dKZQADAr7p2nxNJKj-12" style="edgeStyle=orthogonalEdgeStyle;rounded=0;orthogonalLoop=1;jettySize=auto;html=1;entryX=0.5;entryY=1;entryDx=0;entryDy=0;" edge="1" parent="1" source="Tv2dKZQADAr7p2nxNJKj-6" target="Tv2dKZQADAr7p2nxNJKj-5">
          <mxGeometry relative="1" as="geometry" />
        </mxCell>
        <mxCell id="Tv2dKZQADAr7p2nxNJKj-17" value="" style="edgeStyle=orthogonalEdgeStyle;rounded=0;orthogonalLoop=1;jettySize=auto;html=1;" edge="1" parent="1" source="Tv2dKZQADAr7p2nxNJKj-6" target="Tv2dKZQADAr7p2nxNJKj-11">
          <mxGeometry relative="1" as="geometry" />
        </mxCell>
        <mxCell id="Tv2dKZQADAr7p2nxNJKj-6" value="Điểm hợp lệ" style="rhombus;whiteSpace=wrap;html=1;rounded=0;" vertex="1" parent="1">
          <mxGeometry x="90" y="480" width="140" height="140" as="geometry" />
        </mxCell>
        <mxCell id="Tv2dKZQADAr7p2nxNJKj-19" value="" style="edgeStyle=orthogonalEdgeStyle;rounded=0;orthogonalLoop=1;jettySize=auto;html=1;" edge="1" parent="1" source="Tv2dKZQADAr7p2nxNJKj-11" target="Tv2dKZQADAr7p2nxNJKj-18">
          <mxGeometry relative="1" as="geometry" />
        </mxCell>
        <mxCell id="Tv2dKZQADAr7p2nxNJKj-11" value="Điểm hợp lệ" style="shape=parallelogram;perimeter=parallelogramPerimeter;whiteSpace=wrap;html=1;fixedSize=1;" vertex="1" parent="1">
          <mxGeometry x="80" y="670" width="160" height="90" as="geometry" />
        </mxCell>
        <mxCell id="Tv2dKZQADAr7p2nxNJKj-18" value="Kết thúc" style="ellipse;whiteSpace=wrap;html=1;" vertex="1" parent="1">
          <mxGeometry x="90" y="810" width="140" height="100" as="geometry" />
        </mxCell>
      </root>
    </mxGraphModel>
  </diagram>
</mxfile>
